<?xml version="1.0" encoding="utf-8"?>
<!-- Generator: Adobe Illustrator 16.0.0, SVG Export Plug-In . SVG Version: 6.00 Build 0)  -->
<!DOCTYPE svg PUBLIC "-//W3C//DTD SVG 1.1//EN" "http://www.w3.org/Graphics/SVG/1.1/DTD/svg11.dtd">
<svg version="1.1" xmlns="http://www.w3.org/2000/svg" xmlns:xlink="http://www.w3.org/1999/xlink" x="0px" y="0px"
	 width="88.316px" height="88.318px" viewBox="0 0 88.316 88.318" enable-background="new 0 0 88.316 88.318" xml:space="preserve">
<g id="Layer_1_copy">
	<path fill="#F88962" d="M88.316,73.268c0,8.312-6.738,15.051-15.054,15.051H15.05C6.737,88.319,0,81.581,0,73.268V15.052
		C0,6.74,6.737,0,15.05,0h58.214c8.313,0,15.054,6.74,15.054,15.052L88.316,73.268L88.316,73.268z"/>
</g>
<g id="Layer_5">
	<path fill="#FFFFFF" d="M32.7,30.25c-0.4-0.399-1-0.399-1.4,0L7.4,54.15c-1.2,1.199-1.2,3,0,4.199c1.2,1.2,3,1.2,4.2,0L35.5,34.45
		c0.4-0.4,0.4-1,0-1.4L32.7,30.25z"/>
	<path fill="#FFFFFF" d="M39.7,30.25l3.2-3.2c0.6-0.6,0.6-1.5,0-2.1l-2.101-2.1c-0.6-0.601-1.5-0.601-2.1,0l-3.2,3.199
		c-0.4,0.4-0.4,1,0,1.4l2.8,2.8C38.7,30.649,39.3,30.649,39.7,30.25z"/>
	<path fill="#FFFFFF" d="M14.9,20.85c3.8,1.199,6.8,4.1,8,8c0.2,0.6,1,0.6,1.2,0c1.2-3.801,4.1-6.801,8-8
		c0.601-0.201,0.601-1,0-1.201c-3.8-1.199-6.8-4.1-8-8c-0.2-0.6-1-0.6-1.2,0c-1.2,3.8-4.1,6.8-8,8
		C14.4,19.85,14.4,20.649,14.9,20.85z"/>
	<path fill="#FFFFFF" d="M42.8,17.649c2.601,0.801,4.5,2.701,5.3,5.301c0.101,0.4,0.7,0.4,0.801,0c0.8-2.6,2.699-4.5,5.3-5.301
		c0.399-0.1,0.399-0.699,0-0.799c-2.601-0.801-4.5-2.701-5.3-5.301c-0.101-0.4-0.7-0.4-0.801,0c-0.8,2.6-2.699,4.5-5.3,5.301
		C42.4,16.95,42.4,17.55,42.8,17.649z"/>
	<circle fill="#FFFFFF" cx="54.5" cy="38.699" r="7.2"/>
	<path fill="#FFFFFF" d="M76.9,50.7H32.1c-1.6,0-2.2,2-0.9,2.9l11.7,7.499c0.6,0.4,0.9,1.101,0.6,1.801l-4.3,14.6
		c-0.5,1.6,1.6,2.7,2.8,1.5l11.4-12c0.6-0.7,1.8-0.7,2.399,0l11.4,12c1.1,1.2,3.2,0.1,2.8-1.5l-4.5-14.7c-0.2-0.6,0.1-1.399,0.6-1.8
		l11.7-7.5C79.099,52.7,78.5,50.7,76.9,50.7z"/>
</g>
</svg>