<?xml version="1.0" encoding="UTF-8" standalone="no"?>
<svg width="100px" height="100px" viewBox="0 0 100 100" version="1.1" xmlns="http://www.w3.org/2000/svg" xmlns:xlink="http://www.w3.org/1999/xlink">
    <!-- Generator: Sketch 40.1 (33804) - http://www.bohemiancoding.com/sketch -->
    <title>Slice</title>
    <desc>Created with Sketch.</desc>
    <defs></defs>
    <g id="Page-1" stroke="none" stroke-width="1" fill="none" fill-rule="evenodd">
        <rect id="Rectangle" fill="#E7B063" x="0" y="0" width="100" height="100" rx="8"></rect>
        <g id="Group" transform="translate(8.000000, 17.000000)" fill="#FFFFFF">
            <path d="M38.8761855,39.3224964 C37.892255,38.331173 36.4163593,38.331173 35.4324289,39.3224964 L29.5288462,45.2704371 C28.5449157,46.2617605 26.7410432,45.6008782 26.7410432,44.1138931 L26.7410432,22.3047774 C26.7410432,20.9830128 25.5931243,19.8264688 24.2812171,19.8264688 L19.3615648,19.8264688 C18.0496575,19.8264688 16.9017387,20.9830128 16.9017387,22.3047774 L16.9017387,44.1138931 C16.9017387,45.6008782 15.0978662,46.2617605 14.1139357,45.2704371 L8.210353,39.3224964 C7.22642255,38.331173 5.75052687,38.331173 4.76659642,39.3224964 L1.15885142,42.9573491 C0.174920969,43.9486725 0.174920969,45.4356577 1.15885142,46.4269811 L20.0175184,65.427347 C21.0014489,66.4186705 22.4773446,66.4186705 23.461275,65.427347 L42.4839305,46.2617605 C43.4678609,45.2704371 43.4678609,43.7834519 42.4839305,42.7921285 L38.8761855,39.3224964 L38.8761855,39.3224964 Z M82.4971022,2.4783086 C82.4971022,1.15654401 81.3491834,0 80.0372761,0 L19.3615648,0 C18.0496575,0 16.9017387,1.15654401 16.9017387,2.4783086 L16.9017387,7.4349258 C16.9017387,8.75669039 18.0496575,9.9132344 19.3615648,9.9132344 L80.0372761,9.9132344 C81.3491834,9.9132344 82.4971022,8.75669039 82.4971022,7.4349258 L82.4971022,2.4783086 L82.4971022,2.4783086 Z M82.4971022,22.3047774 C82.4971022,20.9830128 81.3491834,19.8264688 80.0372761,19.8264688 L35.7604057,19.8264688 C34.4484984,19.8264688 33.3005796,20.9830128 33.3005796,22.3047774 L33.3005796,27.2613946 C33.3005796,28.5831592 34.4484984,29.7397032 35.7604057,29.7397032 L80.0372761,29.7397032 C81.3491834,29.7397032 82.4971022,28.5831592 82.4971022,27.2613946 L82.4971022,22.3047774 L82.4971022,22.3047774 Z M82.4971022,42.1312462 C82.4971022,40.8094816 81.3491834,39.6529376 80.0372761,39.6529376 L52.1592466,39.6529376 C50.8473393,39.6529376 49.6994204,40.8094816 49.6994204,42.1312462 L49.6994204,47.0878634 C49.6994204,48.409628 50.8473393,49.566172 52.1592466,49.566172 L80.0372761,49.566172 C81.3491834,49.566172 82.4971022,48.409628 82.4971022,47.0878634 L82.4971022,42.1312462 L82.4971022,42.1312462 Z" id="Shape"></path>
        </g>
    </g>
</svg>